<?xml version="1.0" encoding="utf-8"?>
<!-- Generator: Adobe Illustrator 18.1.1, SVG Export Plug-In . SVG Version: 6.00 Build 0)  -->
<svg version="1.1" id="Layer_1" xmlns="http://www.w3.org/2000/svg" xmlns:xlink="http://www.w3.org/1999/xlink" x="0px" y="0px"
	 viewBox="0 0 66 66" enable-background="new 0 0 66 66" xml:space="preserve">
<g>
	<defs>
		<circle id="SVGID_83_" cx="33" cy="33" r="31.4"/>
	</defs>
	<clipPath id="SVGID_2_">
		<use xlink:href="#SVGID_83_"  overflow="visible"/>
	</clipPath>
	
		<use xlink:href="#SVGID_83_"  overflow="visible" fill-rule="evenodd" clip-rule="evenodd" fill="none" stroke="#091F2F" stroke-width="3" stroke-miterlimit="10"/>
</g>
<g>
	<g>
		<defs>
			<path id="SVGID_205_" d="M28.5,30.7v5.9h4.3c2.1,0,4.7-0.1,4.7-2.9c0-2.9-2.4-3-3.7-3H28.5z M28.5,21.2v5.1h4.6
				c1.4,0,3.6-0.1,3.6-2.6c0-2.4-2.1-2.5-3.2-2.5H28.5z M22.7,16.6h9.5c2.6,0,4.9,0.1,6.4,0.6c3,1,4.2,3.4,4.2,5.7
				c0,1.3-0.3,2.1-0.5,2.4c-1.1,2.5-3.5,3-4.8,3.3c1.5,0.2,3.5,0.6,4.8,2.1c0.9,0.9,1.4,2.3,1.4,3.7c0,1.9-1,4.6-4.1,5.9
				c-1.8,0.8-3.8,0.9-6.6,0.9H22.7V16.6z"/>
		</defs>
		<use xlink:href="#SVGID_205_"  overflow="visible" fill-rule="evenodd" clip-rule="evenodd" fill="#091F2E"/>
		<clipPath id="SVGID_4_">
			<use xlink:href="#SVGID_205_"  overflow="visible"/>
		</clipPath>
		<g clip-path="url(#SVGID_4_)">
			<defs>
				<rect id="SVGID_207_" x="-9.6" y="-13.2" width="167.8" height="243.5"/>
			</defs>
			<use xlink:href="#SVGID_207_"  overflow="visible" fill="#091F2E"/>
			<clipPath id="SVGID_6_">
				<use xlink:href="#SVGID_207_"  overflow="visible"/>
			</clipPath>
		</g>
	</g>
	<g>
		<defs>
			<rect id="SVGID_209_" x="22.7" y="44.6" width="21" height="4.8"/>
		</defs>
		<use xlink:href="#SVGID_209_"  overflow="visible" fill-rule="evenodd" clip-rule="evenodd" fill="#091F2E"/>
		<clipPath id="SVGID_8_">
			<use xlink:href="#SVGID_209_"  overflow="visible"/>
		</clipPath>
		<g clip-path="url(#SVGID_8_)">
			<defs>
				<rect id="SVGID_211_" x="-9.7" y="-13.4" width="168.7" height="244.7"/>
			</defs>
			<use xlink:href="#SVGID_211_"  overflow="visible" fill="#091F2E"/>
			<clipPath id="SVGID_10_">
				<use xlink:href="#SVGID_211_"  overflow="visible"/>
			</clipPath>
		</g>
	</g>
</g>
</svg>
