<svg xmlns="http://www.w3.org/2000/svg" viewBox="0 0 65.83 65.83"><title>Asset 27</title><g id="Layer_2" data-name="Layer 2"><g id="Layer_1-2" data-name="Layer 1"><path d="M32.92,65.83A32.92,32.92,0,1,1,65.83,32.92,33,33,0,0,1,32.92,65.83ZM32.92,3A29.92,29.92,0,1,0,62.83,32.92,30,30,0,0,0,32.92,3Z" fill="#091f2f"/><path d="M32.78,10.74a21.92,21.92,0,1,1-22,21.87A21.93,21.93,0,0,1,32.78,10.74ZM52.73,32.68a20,20,0,1,0-20,20A20,20,0,0,0,52.73,32.68Z" fill="#091f2f"/><path d="M47.17,22v6.59H36.48V46.44H29.1V28.62H18.35V22Z" fill="#091f2f"/></g></g></svg>